<?xml version="1.0" encoding="UTF-8"?>
<svg id="Layer_2" data-name="Layer 2" xmlns="http://www.w3.org/2000/svg" viewBox="0 0 499.95 886.66">
  <defs>
    <style>
      .cls-1 {
        fill: #fff200;
        stroke-width: 0px;
      }
    </style>
  </defs>
  <g id="Layer_1-2" data-name="Layer 1">
    <path class="cls-1" d="M.01,131.11c.21,15.65.77,33.07,1.88,50.48.96,14.97,2.27,29.89,4.82,44.68,1.48,8.54,3.29,17,6.6,25.06,1.36,3.3,2.99,6.45,5.39,9.14,3.51,3.94,6.42,4.52,11.1,2.27,24.85-11.93,50.15-22.73,76.65-30.48,20.43-5.98,41.14-10.2,62.58-9.82,11.27.2,22.37,1.45,33.18,4.73,21.58,6.54,36.57,20.08,43.53,41.77,5.18,16.14,5.97,32.7,3.32,49.4-2.37,14.92-7.51,28.98-13.92,42.58-10.52,22.31-24.01,42.79-38.9,62.37-10.69,14.06-21.63,27.93-31.25,42.77-11.02,17-20.88,34.6-27.87,53.69-4.65,12.69-7.83,25.71-8.26,39.26-.35,11.11.26,22.21,1.9,33.22,1.06,7.16,2.62,14.2,6.14,20.63,3.6,6.58,9.71,11.93,20.35,8.5,7.42-2.39,15.1-3.66,22.8-4.68,16.53-2.2,33.18-2.88,49.83-3.34,6.99-.19,14-.11,21-.18,3.24-.03,6.42-.54,9.46-1.67,6.71-2.5,10.85-7.05,11.54-14.43.63-6.74,1.48-13.46,2.11-20.2.99-10.76,4.08-20.88,9.07-30.43,7.77-14.87,18.65-27.26,30.94-38.51,15.97-14.62,33.69-26.85,52.26-37.87,13-7.71,26.03-15.31,38.14-24.41,42.5-31.94,71.13-73.35,85.18-124.71,8.6-31.44,11.41-63.5,10-96-.68-15.68-2.67-31.18-6.21-46.47-8.67-37.39-25.88-70.28-52.36-98.14-34.32-36.1-76.09-59.28-124.29-71.18C293.02,3.28,268.9.66,244.52.08c-12.67-.3-25.31.24-37.96.93-12.76.7-25.46,1.97-38.12,3.66-20.14,2.68-40.09,6.43-59.86,11.14-19.35,4.6-38.45,10.02-56.72,18-11.96,5.22-23.37,11.39-33.21,20.1-8.24,7.3-14.55,15.88-16.91,26.88C.53,86.45.05,92.21.02,97.99c-.05,10.44-.01,20.89-.01,33.12ZM218.68,886.66c12.13-.01,22.63-1.31,32.87-4.54,33.38-10.54,56.42-32.82,71.13-63.99,8.71-18.47,11.16-38.2,9.56-58.51-1.65-20.89-8.33-39.9-20.7-56.82-13.06-17.87-29.46-31.67-50.16-39.95-17.58-7.04-35.87-8.87-54.62-7.15-13.65,1.25-26.73,4.67-38.8,11.13-45.77,24.46-70.84,72.41-60.18,127.56,3.84,19.87,12.8,37.28,25.97,52.55,22.37,25.93,50.47,39.66,84.94,39.73Z"/>
  </g>
</svg>